<?xml version="1.0" standalone="no"?>
<svg
  width="600"
  height="600"
  viewBox="0 0 600 600"
  xmlns="http://www.w3.org/2000/svg"
>
  <g transform="translate(300,300)">
    <path d="M107.7,-141.2C135.3,-105.2,150.4,-67.2,157.6,-27.6C164.9,12.1,164.3,53.3,150.5,96C136.7,138.8,109.7,183.1,71.6,197.1C33.5,211.1,-15.7,194.8,-69.2,179.8C-122.7,164.9,-180.4,151.2,-214.9,113.4C-249.4,75.7,-260.6,13.9,-242.8,-35.1C-224.9,-84,-178,-120.2,-132.7,-153C-87.4,-185.8,-43.7,-215.4,-1.8,-213.3C40.1,-211.1,80.1,-177.2,107.7,-141.2Z" fill="#FFB4BC" />
  </g>
</svg>
  