<svg width="1280" height="960" xmlns="http://www.w3.org/2000/svg">
 <!-- Created with Method Draw - http://github.com/duopixel/Method-Draw/ -->

 <g>
  <title>background</title>
  <rect fill="#ffffff" id="canvas_background" height="962" width="1282" y="-1" x="-1"/>
  <g display="none" overflow="visible" y="0" x="0" height="100%" width="100%" id="canvasGrid">
   <rect fill="url(#gridpattern)" stroke-width="0" y="0" x="0" height="100%" width="100%"/>
  </g>
 </g>
 <g>
  <title>Layer 1</title>
  <path id="svg_4" d="m26.5,669.453125" opacity="0.5" fill-opacity="null" stroke-opacity="0" stroke-width="1.5" stroke="#0f0f00" fill="#ffd4aa"/>
  <path stroke="#0f0f00" id="svg_5" d="m117.787834,427.436961c-1.084095,-48.891413 6,-103.138206 44.841734,-132.261603c38.841734,-29.123396 104.441107,-43.243831 194.20867,2.647582c89.767563,45.891413 209.745363,36.183614 208.019064,-22.945707c-1.7263,-59.12932 -65.599373,-211.806521 36.252285,-221.51432c101.851658,-9.707799 201.977016,86.487663 323.681116,185.330706c121.7041,98.843044 170.04048,80.309973 227.008356,150.02962c56.967876,69.719646 6.115434,174.330707 -19.347088,218.866739c-25.462522,44.536032 -126.535126,144.825271 -258.071035,199.93682c-131.535909,55.111549 -288.6819,55.168805 -414.028204,8.762093c-125.346304,-46.406712 -198.566466,-91.587365 -262.355444,-186.533071c-63.788978,-94.945706 -79.125359,-153.427446 -80.209454,-202.318859z" fill-opacity="null" stroke-opacity="0" stroke-width="1.5" fill="#ffd4aa"/>
 </g>
</svg>